# xmcd
#
# Track frame offsets: 
#        150
#        26057
#        40111
#        60059
#        78302
#        100902
#        120843
#        142257
#        153408
#        166964
#        188090
#        208444
#        228006
#        247744
#
# Disc length: 3488 seconds
#
# Revision: 1
# Processed by: cddbd v1.5.2PL0 Copyright (c) Steve Scherf et al.
# Submitted via: ExactAudioCopyFreeDBPlugin 1.0
#
DISCID=a90d9e0e
DTITLE=Various Artist - Soulbag Sampler, Sep 2007
DYEAR=2007
DGENRE=Blues
TTITLE0=The Soul Of John Black - The hole
TTITLE1=Nappy Brown - Keep on pleasin' you
TTITLE2=Lurrie Bell - Turn to me
TTITLE3=The Pilgrim Jubilees - Satan you can't tempt me
TTITLE4=Ann Nesby - I apologize
TTITLE5=The Spiritualaries - When the gates swing open
TTITLE6=Awek - I ain't gonna do
TTITLE7=Ace Holder - Happy anniversary
TTITLE8=Tommy Tate - Identity
TTITLE9=The Kilborn Alley Blues Band - Christmas in country
TTITLE10=Sterling Harrison - The house where nobody lives
TTITLE11=Bentoît Blue Boy and Les Tortilleurs - Les temps changent
TTITLE12=Little J.C. - Dream I had last night
TTITLE13=Rufus McKenzie - Slavery time blues
EXTD=
EXTT0=
EXTT1=
EXTT2=
EXTT3=
EXTT4=
EXTT5=
EXTT6=
EXTT7=
EXTT8=
EXTT9=
EXTT10=
EXTT11=
EXTT12=
EXTT13=
PLAYORDER=
